<?xml version="1.0" encoding="UTF-8" standalone="no"?>
<!DOCTYPE svg PUBLIC "-//W3C//DTD SVG 1.1//EN"
 "http://www.w3.org/Graphics/SVG/1.1/DTD/svg11.dtd">
<!-- Generated by graphviz version 2.40.1 (20161225.0304)
 -->
<!-- Title: G Pages: 1 -->
<svg width="294pt" height="775pt"
 viewBox="0.00 0.00 294.40 775.00" xmlns="http://www.w3.org/2000/svg" xmlns:xlink="http://www.w3.org/1999/xlink">
<g id="graph0" class="graph" transform="scale(1 1) rotate(0) translate(4 771)">
<title>G</title>
<polygon fill="#ffffff" stroke="transparent" points="-4,4 -4,-771 290.3966,-771 290.3966,4 -4,4"/>
<!-- START -->
<g id="node1" class="node">
<title>START</title>
<polygon fill="#333333" stroke="#333333" points="131,-766.5 72.294,-748.5 131,-730.5 189.706,-748.5 131,-766.5"/>
<polyline fill="none" stroke="#333333" points="83.7668,-752.0177 83.7668,-744.9823 "/>
<polyline fill="none" stroke="#333333" points="119.5272,-734.0177 142.4728,-734.0177 "/>
<polyline fill="none" stroke="#333333" points="178.2332,-744.9823 178.2332,-752.0177 "/>
<polyline fill="none" stroke="#333333" points="142.4728,-762.9823 119.5272,-762.9823 "/>
<text text-anchor="middle" x="131" y="-744.3" font-family="lato, roboto, helvetica" font-size="14.00" fill="#dddddd">START</text>
</g>
<!-- speak_to_man -->
<g id="node3" class="node">
<title>speak_to_man</title>
<path fill="#333399" stroke="#333399" d="M27.7882,-657.5C27.7882,-657.5 102.2118,-657.5 102.2118,-657.5 108.2118,-657.5 114.2118,-663.5 114.2118,-669.5 114.2118,-669.5 114.2118,-681.5 114.2118,-681.5 114.2118,-687.5 108.2118,-693.5 102.2118,-693.5 102.2118,-693.5 27.7882,-693.5 27.7882,-693.5 21.7882,-693.5 15.7882,-687.5 15.7882,-681.5 15.7882,-681.5 15.7882,-669.5 15.7882,-669.5 15.7882,-663.5 21.7882,-657.5 27.7882,-657.5"/>
<text text-anchor="middle" x="65" y="-671.3" font-family="lato, roboto, helvetica" font-size="14.00" fill="#eeeeee">Speak To Man</text>
</g>
<!-- START&#45;&gt;speak_to_man -->
<g id="edge2" class="edge">
<title>START&#45;&gt;speak_to_man</title>
<path fill="none" stroke="#999999" d="M117.9605,-734.0775C109.0853,-724.261 97.1245,-711.0317 86.8154,-699.6292"/>
<polygon fill="#999999" stroke="#999999" points="88.7303,-697.5721 81.2881,-693.5157 84.5764,-701.3277 88.7303,-697.5721"/>
</g>
<!-- talk_to_exile -->
<g id="node9" class="node">
<title>talk_to_exile</title>
<path fill="#333399" stroke="#333399" d="M181.1206,-657.5C181.1206,-657.5 250.8794,-657.5 250.8794,-657.5 256.8794,-657.5 262.8794,-663.5 262.8794,-669.5 262.8794,-669.5 262.8794,-681.5 262.8794,-681.5 262.8794,-687.5 256.8794,-693.5 250.8794,-693.5 250.8794,-693.5 181.1206,-693.5 181.1206,-693.5 175.1206,-693.5 169.1206,-687.5 169.1206,-681.5 169.1206,-681.5 169.1206,-669.5 169.1206,-669.5 169.1206,-663.5 175.1206,-657.5 181.1206,-657.5"/>
<text text-anchor="middle" x="216" y="-671.3" font-family="lato, roboto, helvetica" font-size="14.00" fill="#eeeeee">Talk To Exile</text>
</g>
<!-- START&#45;&gt;talk_to_exile -->
<g id="edge8" class="edge">
<title>START&#45;&gt;talk_to_exile</title>
<path fill="none" stroke="#999999" d="M146.5903,-735.1107C158.3108,-725.0449 174.6696,-710.9955 188.5622,-699.0642"/>
<polygon fill="#999999" stroke="#999999" points="190.5015,-701.0896 194.7462,-693.7532 186.8529,-696.8413 190.5015,-701.0896"/>
</g>
<!-- boat -->
<g id="node2" class="node">
<title>boat</title>
<path fill="#339933" stroke="#339933" d="M12,-730.5C12,-730.5 42,-730.5 42,-730.5 48,-730.5 54,-736.5 54,-742.5 54,-742.5 54,-754.5 54,-754.5 54,-760.5 48,-766.5 42,-766.5 42,-766.5 12,-766.5 12,-766.5 6,-766.5 0,-760.5 0,-754.5 0,-754.5 0,-742.5 0,-742.5 0,-736.5 6,-730.5 12,-730.5"/>
<text text-anchor="middle" x="26.7209" y="-744.3" font-family="lato, roboto, helvetica" font-size="14.00" fill="#eeeeee">Boat</text>
</g>
<!-- boat&#45;&gt;speak_to_man -->
<g id="edge1" class="edge">
<title>boat&#45;&gt;speak_to_man</title>
<path fill="none" stroke="#999999" d="M36.3933,-730.4551C41.052,-721.5054 46.7564,-710.547 51.8421,-700.7769"/>
<polygon fill="#999999" stroke="#999999" points="54.3728,-701.9794 55.5831,-693.5904 49.4055,-699.3936 54.3728,-701.9794"/>
</g>
<!-- get_axe -->
<g id="node4" class="node">
<title>get_axe</title>
<path fill="#333399" stroke="#333399" d="M45.4835,-584.5C45.4835,-584.5 84.5165,-584.5 84.5165,-584.5 90.5165,-584.5 96.5165,-590.5 96.5165,-596.5 96.5165,-596.5 96.5165,-608.5 96.5165,-608.5 96.5165,-614.5 90.5165,-620.5 84.5165,-620.5 84.5165,-620.5 45.4835,-620.5 45.4835,-620.5 39.4835,-620.5 33.4835,-614.5 33.4835,-608.5 33.4835,-608.5 33.4835,-596.5 33.4835,-596.5 33.4835,-590.5 39.4835,-584.5 45.4835,-584.5"/>
<text text-anchor="middle" x="65" y="-598.3" font-family="lato, roboto, helvetica" font-size="14.00" fill="#eeeeee">Get Axe</text>
</g>
<!-- speak_to_man&#45;&gt;get_axe -->
<g id="edge3" class="edge">
<title>speak_to_man&#45;&gt;get_axe</title>
<path fill="none" stroke="#999999" d="M65,-657.4551C65,-648.7686 65,-638.1898 65,-628.642"/>
<polygon fill="#999999" stroke="#999999" points="67.8001,-628.5903 65,-620.5904 62.2001,-628.5904 67.8001,-628.5903"/>
</g>
<!-- chop_wood -->
<g id="node5" class="node">
<title>chop_wood</title>
<path fill="#333399" stroke="#333399" d="M34.9744,-511.5C34.9744,-511.5 95.0256,-511.5 95.0256,-511.5 101.0256,-511.5 107.0256,-517.5 107.0256,-523.5 107.0256,-523.5 107.0256,-535.5 107.0256,-535.5 107.0256,-541.5 101.0256,-547.5 95.0256,-547.5 95.0256,-547.5 34.9744,-547.5 34.9744,-547.5 28.9744,-547.5 22.9744,-541.5 22.9744,-535.5 22.9744,-535.5 22.9744,-523.5 22.9744,-523.5 22.9744,-517.5 28.9744,-511.5 34.9744,-511.5"/>
<text text-anchor="middle" x="65" y="-525.3" font-family="lato, roboto, helvetica" font-size="14.00" fill="#eeeeee">Chop Wood</text>
</g>
<!-- get_axe&#45;&gt;chop_wood -->
<g id="edge4" class="edge">
<title>get_axe&#45;&gt;chop_wood</title>
<path fill="none" stroke="#999999" d="M65,-584.4551C65,-575.7686 65,-565.1898 65,-555.642"/>
<polygon fill="#999999" stroke="#999999" points="67.8001,-555.5903 65,-547.5904 62.2001,-555.5904 67.8001,-555.5903"/>
</g>
<!-- give_wood -->
<g id="node6" class="node">
<title>give_wood</title>
<path fill="#333399" stroke="#333399" d="M36.5368,-438.5C36.5368,-438.5 93.4632,-438.5 93.4632,-438.5 99.4632,-438.5 105.4632,-444.5 105.4632,-450.5 105.4632,-450.5 105.4632,-462.5 105.4632,-462.5 105.4632,-468.5 99.4632,-474.5 93.4632,-474.5 93.4632,-474.5 36.5368,-474.5 36.5368,-474.5 30.5368,-474.5 24.5368,-468.5 24.5368,-462.5 24.5368,-462.5 24.5368,-450.5 24.5368,-450.5 24.5368,-444.5 30.5368,-438.5 36.5368,-438.5"/>
<text text-anchor="middle" x="65" y="-452.3" font-family="lato, roboto, helvetica" font-size="14.00" fill="#eeeeee">Give Wood</text>
</g>
<!-- chop_wood&#45;&gt;give_wood -->
<g id="edge5" class="edge">
<title>chop_wood&#45;&gt;give_wood</title>
<path fill="none" stroke="#999999" d="M65,-511.4551C65,-502.7686 65,-492.1898 65,-482.642"/>
<polygon fill="#999999" stroke="#999999" points="67.8001,-482.5903 65,-474.5904 62.2001,-482.5904 67.8001,-482.5903"/>
</g>
<!-- fix_boat -->
<g id="node7" class="node">
<title>fix_boat</title>
<path fill="#993333" stroke="#993333" d="M44.6925,-365.5C44.6925,-365.5 85.3075,-365.5 85.3075,-365.5 91.3075,-365.5 97.3075,-371.5 97.3075,-377.5 97.3075,-377.5 97.3075,-389.5 97.3075,-389.5 97.3075,-395.5 91.3075,-401.5 85.3075,-401.5 85.3075,-401.5 44.6925,-401.5 44.6925,-401.5 38.6925,-401.5 32.6925,-395.5 32.6925,-389.5 32.6925,-389.5 32.6925,-377.5 32.6925,-377.5 32.6925,-371.5 38.6925,-365.5 44.6925,-365.5"/>
<text text-anchor="middle" x="65" y="-379.3" font-family="lato, roboto, helvetica" font-size="14.00" fill="#eeeeee">Fix Boat</text>
</g>
<!-- give_wood&#45;&gt;fix_boat -->
<g id="edge6" class="edge">
<title>give_wood&#45;&gt;fix_boat</title>
<path fill="none" stroke="#999999" d="M65,-438.4551C65,-429.7686 65,-419.1898 65,-409.642"/>
<polygon fill="#999999" stroke="#999999" points="67.8001,-409.5903 65,-401.5904 62.2001,-409.5904 67.8001,-409.5903"/>
</g>
<!-- enter_boat -->
<g id="node16" class="node">
<title>enter_boat</title>
<path fill="#333399" stroke="#333399" d="M62.8699,-292.5C62.8699,-292.5 115.1301,-292.5 115.1301,-292.5 121.1301,-292.5 127.1301,-298.5 127.1301,-304.5 127.1301,-304.5 127.1301,-316.5 127.1301,-316.5 127.1301,-322.5 121.1301,-328.5 115.1301,-328.5 115.1301,-328.5 62.8699,-328.5 62.8699,-328.5 56.8699,-328.5 50.8699,-322.5 50.8699,-316.5 50.8699,-316.5 50.8699,-304.5 50.8699,-304.5 50.8699,-298.5 56.8699,-292.5 62.8699,-292.5"/>
<text text-anchor="middle" x="89" y="-306.3" font-family="lato, roboto, helvetica" font-size="14.00" fill="#eeeeee">Enter Boat</text>
</g>
<!-- fix_boat&#45;&gt;enter_boat -->
<g id="edge15" class="edge">
<title>fix_boat&#45;&gt;enter_boat</title>
<path fill="none" stroke="#999999" d="M70.9326,-365.4551C73.8172,-356.6809 77.3367,-345.9759 80.5004,-336.353"/>
<polygon fill="#999999" stroke="#999999" points="83.2138,-337.0647 83.0525,-328.5904 77.8939,-335.3157 83.2138,-337.0647"/>
</g>
<!-- spear -->
<g id="node8" class="node">
<title>spear</title>
<path fill="#339933" stroke="#339933" d="M220,-730.5C220,-730.5 250,-730.5 250,-730.5 256,-730.5 262,-736.5 262,-742.5 262,-742.5 262,-754.5 262,-754.5 262,-760.5 256,-766.5 250,-766.5 250,-766.5 220,-766.5 220,-766.5 214,-766.5 208,-760.5 208,-754.5 208,-754.5 208,-742.5 208,-742.5 208,-736.5 214,-730.5 220,-730.5"/>
<text text-anchor="middle" x="234.9362" y="-744.3" font-family="lato, roboto, helvetica" font-size="14.00" fill="#eeeeee">Spear</text>
</g>
<!-- spear&#45;&gt;talk_to_exile -->
<g id="edge7" class="edge">
<title>spear&#45;&gt;talk_to_exile</title>
<path fill="none" stroke="#999999" d="M230.3034,-730.4551C228.0197,-721.6809 225.2335,-710.9759 222.7289,-701.353"/>
<polygon fill="#999999" stroke="#999999" points="225.4333,-700.6271 220.7084,-693.5904 220.0139,-702.0377 225.4333,-700.6271"/>
</g>
<!-- cut_rope -->
<g id="node10" class="node">
<title>cut_rope</title>
<path fill="#333399" stroke="#333399" d="M193.3608,-584.5C193.3608,-584.5 238.6392,-584.5 238.6392,-584.5 244.6392,-584.5 250.6392,-590.5 250.6392,-596.5 250.6392,-596.5 250.6392,-608.5 250.6392,-608.5 250.6392,-614.5 244.6392,-620.5 238.6392,-620.5 238.6392,-620.5 193.3608,-620.5 193.3608,-620.5 187.3608,-620.5 181.3608,-614.5 181.3608,-608.5 181.3608,-608.5 181.3608,-596.5 181.3608,-596.5 181.3608,-590.5 187.3608,-584.5 193.3608,-584.5"/>
<text text-anchor="middle" x="216" y="-598.3" font-family="lato, roboto, helvetica" font-size="14.00" fill="#eeeeee">Cut Rope</text>
</g>
<!-- talk_to_exile&#45;&gt;cut_rope -->
<g id="edge9" class="edge">
<title>talk_to_exile&#45;&gt;cut_rope</title>
<path fill="none" stroke="#999999" d="M216,-657.4551C216,-648.7686 216,-638.1898 216,-628.642"/>
<polygon fill="#999999" stroke="#999999" points="218.8001,-628.5903 216,-620.5904 213.2001,-628.5904 218.8001,-628.5903"/>
</g>
<!-- take_hat -->
<g id="node11" class="node">
<title>take_hat</title>
<path fill="#333399" stroke="#333399" d="M194.1532,-511.5C194.1532,-511.5 237.8468,-511.5 237.8468,-511.5 243.8468,-511.5 249.8468,-517.5 249.8468,-523.5 249.8468,-523.5 249.8468,-535.5 249.8468,-535.5 249.8468,-541.5 243.8468,-547.5 237.8468,-547.5 237.8468,-547.5 194.1532,-547.5 194.1532,-547.5 188.1532,-547.5 182.1532,-541.5 182.1532,-535.5 182.1532,-535.5 182.1532,-523.5 182.1532,-523.5 182.1532,-517.5 188.1532,-511.5 194.1532,-511.5"/>
<text text-anchor="middle" x="216" y="-525.3" font-family="lato, roboto, helvetica" font-size="14.00" fill="#eeeeee">Take Hat</text>
</g>
<!-- cut_rope&#45;&gt;take_hat -->
<g id="edge10" class="edge">
<title>cut_rope&#45;&gt;take_hat</title>
<path fill="none" stroke="#999999" d="M216,-584.4551C216,-575.7686 216,-565.1898 216,-555.642"/>
<polygon fill="#999999" stroke="#999999" points="218.8001,-555.5903 216,-547.5904 213.2001,-555.5904 218.8001,-555.5903"/>
</g>
<!-- wear_hat -->
<g id="node12" class="node">
<title>wear_hat</title>
<path fill="#333399" stroke="#333399" d="M192.9919,-438.5C192.9919,-438.5 239.0081,-438.5 239.0081,-438.5 245.0081,-438.5 251.0081,-444.5 251.0081,-450.5 251.0081,-450.5 251.0081,-462.5 251.0081,-462.5 251.0081,-468.5 245.0081,-474.5 239.0081,-474.5 239.0081,-474.5 192.9919,-474.5 192.9919,-474.5 186.9919,-474.5 180.9919,-468.5 180.9919,-462.5 180.9919,-462.5 180.9919,-450.5 180.9919,-450.5 180.9919,-444.5 186.9919,-438.5 192.9919,-438.5"/>
<text text-anchor="middle" x="216" y="-452.3" font-family="lato, roboto, helvetica" font-size="14.00" fill="#eeeeee">Wear Hat</text>
</g>
<!-- take_hat&#45;&gt;wear_hat -->
<g id="edge11" class="edge">
<title>take_hat&#45;&gt;wear_hat</title>
<path fill="none" stroke="#999999" d="M216,-511.4551C216,-502.7686 216,-492.1898 216,-482.642"/>
<polygon fill="#999999" stroke="#999999" points="218.8001,-482.5903 216,-474.5904 213.2001,-482.5904 218.8001,-482.5903"/>
</g>
<!-- give_boar_to_butcher -->
<g id="node13" class="node">
<title>give_boar_to_butcher</title>
<path fill="#333399" stroke="#333399" d="M157.6034,-292.5C157.6034,-292.5 274.3966,-292.5 274.3966,-292.5 280.3966,-292.5 286.3966,-298.5 286.3966,-304.5 286.3966,-304.5 286.3966,-316.5 286.3966,-316.5 286.3966,-322.5 280.3966,-328.5 274.3966,-328.5 274.3966,-328.5 157.6034,-328.5 157.6034,-328.5 151.6034,-328.5 145.6034,-322.5 145.6034,-316.5 145.6034,-316.5 145.6034,-304.5 145.6034,-304.5 145.6034,-298.5 151.6034,-292.5 157.6034,-292.5"/>
<text text-anchor="middle" x="216" y="-306.3" font-family="lato, roboto, helvetica" font-size="14.00" fill="#eeeeee">Give Boar To Butcher</text>
</g>
<!-- wear_hat&#45;&gt;give_boar_to_butcher -->
<g id="edge12" class="edge">
<title>wear_hat&#45;&gt;give_boar_to_butcher</title>
<path fill="none" stroke="#999999" d="M216,-438.3042C216,-412.8403 216,-366.4108 216,-337.0759"/>
<polygon fill="#999999" stroke="#999999" points="218.8001,-336.9251 216,-328.9251 213.2001,-336.9251 218.8001,-336.9251"/>
</g>
<!-- take_spear -->
<g id="node14" class="node">
<title>take_spear</title>
<path fill="#993333" stroke="#993333" d="M177.3229,-219.5C177.3229,-219.5 232.6771,-219.5 232.6771,-219.5 238.6771,-219.5 244.6771,-225.5 244.6771,-231.5 244.6771,-231.5 244.6771,-243.5 244.6771,-243.5 244.6771,-249.5 238.6771,-255.5 232.6771,-255.5 232.6771,-255.5 177.3229,-255.5 177.3229,-255.5 171.3229,-255.5 165.3229,-249.5 165.3229,-243.5 165.3229,-243.5 165.3229,-231.5 165.3229,-231.5 165.3229,-225.5 171.3229,-219.5 177.3229,-219.5"/>
<text text-anchor="middle" x="205" y="-233.3" font-family="lato, roboto, helvetica" font-size="14.00" fill="#eeeeee">Take Spear</text>
</g>
<!-- give_boar_to_butcher&#45;&gt;take_spear -->
<g id="edge13" class="edge">
<title>give_boar_to_butcher&#45;&gt;take_spear</title>
<path fill="none" stroke="#999999" d="M213.2809,-292.4551C211.972,-283.7686 210.3779,-273.1898 208.9392,-263.642"/>
<polygon fill="#999999" stroke="#999999" points="211.6868,-263.0838 207.7259,-255.5904 206.1493,-263.9183 211.6868,-263.0838"/>
</g>
<!-- fight_octopus -->
<g id="node18" class="node">
<title>fight_octopus</title>
<path fill="#333399" stroke="#333399" d="M116.1399,-146.5C116.1399,-146.5 187.8601,-146.5 187.8601,-146.5 193.8601,-146.5 199.8601,-152.5 199.8601,-158.5 199.8601,-158.5 199.8601,-170.5 199.8601,-170.5 199.8601,-176.5 193.8601,-182.5 187.8601,-182.5 187.8601,-182.5 116.1399,-182.5 116.1399,-182.5 110.1399,-182.5 104.1399,-176.5 104.1399,-170.5 104.1399,-170.5 104.1399,-158.5 104.1399,-158.5 104.1399,-152.5 110.1399,-146.5 116.1399,-146.5"/>
<text text-anchor="middle" x="152" y="-160.3" font-family="lato, roboto, helvetica" font-size="14.00" fill="#eeeeee">Fight Octopus</text>
</g>
<!-- take_spear&#45;&gt;fight_octopus -->
<g id="edge18" class="edge">
<title>take_spear&#45;&gt;fight_octopus</title>
<path fill="none" stroke="#999999" d="M191.8989,-219.4551C185.2738,-210.3299 177.1325,-199.1165 169.9355,-189.2036"/>
<polygon fill="#999999" stroke="#999999" points="172.1,-187.4191 165.1341,-182.5904 167.5684,-190.7091 172.1,-187.4191"/>
</g>
<!-- jewel -->
<g id="node15" class="node">
<title>jewel</title>
<path fill="#339933" stroke="#339933" d="M127,-365.5C127,-365.5 157,-365.5 157,-365.5 163,-365.5 169,-371.5 169,-377.5 169,-377.5 169,-389.5 169,-389.5 169,-395.5 163,-401.5 157,-401.5 157,-401.5 127,-401.5 127,-401.5 121,-401.5 115,-395.5 115,-389.5 115,-389.5 115,-377.5 115,-377.5 115,-371.5 121,-365.5 127,-365.5"/>
<text text-anchor="middle" x="141.9355" y="-379.3" font-family="lato, roboto, helvetica" font-size="14.00" fill="#eeeeee">Jewel</text>
</g>
<!-- jewel&#45;&gt;enter_boat -->
<g id="edge14" class="edge">
<title>jewel&#45;&gt;enter_boat</title>
<path fill="none" stroke="#999999" d="M128.8989,-365.4551C122.2738,-356.3299 114.1325,-345.1165 106.9355,-335.2036"/>
<polygon fill="#999999" stroke="#999999" points="109.1,-333.4191 102.1341,-328.5904 104.5684,-336.7091 109.1,-333.4191"/>
</g>
<!-- dive -->
<g id="node17" class="node">
<title>dive</title>
<path fill="#333399" stroke="#333399" d="M95,-219.5C95,-219.5 125,-219.5 125,-219.5 131,-219.5 137,-225.5 137,-231.5 137,-231.5 137,-243.5 137,-243.5 137,-249.5 131,-255.5 125,-255.5 125,-255.5 95,-255.5 95,-255.5 89,-255.5 83,-249.5 83,-243.5 83,-243.5 83,-231.5 83,-231.5 83,-225.5 89,-219.5 95,-219.5"/>
<text text-anchor="middle" x="109.6059" y="-233.3" font-family="lato, roboto, helvetica" font-size="14.00" fill="#eeeeee">Dive</text>
</g>
<!-- enter_boat&#45;&gt;dive -->
<g id="edge16" class="edge">
<title>enter_boat&#45;&gt;dive</title>
<path fill="none" stroke="#999999" d="M94.191,-292.4551C96.7151,-283.6809 99.7946,-272.9759 102.5628,-263.353"/>
<polygon fill="#999999" stroke="#999999" points="105.275,-264.0527 104.7959,-255.5904 99.8933,-262.5045 105.275,-264.0527"/>
</g>
<!-- dive&#45;&gt;fight_octopus -->
<g id="edge17" class="edge">
<title>dive&#45;&gt;fight_octopus</title>
<path fill="none" stroke="#999999" d="M120.382,-219.4551C125.5311,-210.5054 131.836,-199.547 137.4571,-189.7769"/>
<polygon fill="#999999" stroke="#999999" points="140.0292,-190.921 141.5918,-182.5904 135.1753,-188.1282 140.0292,-190.921"/>
</g>
<!-- take_pearl -->
<g id="node19" class="node">
<title>take_pearl</title>
<path fill="#993333" stroke="#993333" d="M125.8776,-73.5C125.8776,-73.5 178.1224,-73.5 178.1224,-73.5 184.1224,-73.5 190.1224,-79.5 190.1224,-85.5 190.1224,-85.5 190.1224,-97.5 190.1224,-97.5 190.1224,-103.5 184.1224,-109.5 178.1224,-109.5 178.1224,-109.5 125.8776,-109.5 125.8776,-109.5 119.8776,-109.5 113.8776,-103.5 113.8776,-97.5 113.8776,-97.5 113.8776,-85.5 113.8776,-85.5 113.8776,-79.5 119.8776,-73.5 125.8776,-73.5"/>
<text text-anchor="middle" x="152" y="-87.3" font-family="lato, roboto, helvetica" font-size="14.00" fill="#eeeeee">Take Pearl</text>
</g>
<!-- fight_octopus&#45;&gt;take_pearl -->
<g id="edge19" class="edge">
<title>fight_octopus&#45;&gt;take_pearl</title>
<path fill="none" stroke="#999999" d="M152,-146.4551C152,-137.7686 152,-127.1898 152,-117.642"/>
<polygon fill="#999999" stroke="#999999" points="154.8001,-117.5903 152,-109.5904 149.2001,-117.5904 154.8001,-117.5903"/>
</g>
<!-- take_tentacle -->
<g id="node20" class="node">
<title>take_tentacle</title>
<path fill="#333399" stroke="#333399" d="M116.163,-.5C116.163,-.5 187.837,-.5 187.837,-.5 193.837,-.5 199.837,-6.5 199.837,-12.5 199.837,-12.5 199.837,-24.5 199.837,-24.5 199.837,-30.5 193.837,-36.5 187.837,-36.5 187.837,-36.5 116.163,-36.5 116.163,-36.5 110.163,-36.5 104.163,-30.5 104.163,-24.5 104.163,-24.5 104.163,-12.5 104.163,-12.5 104.163,-6.5 110.163,-.5 116.163,-.5"/>
<text text-anchor="middle" x="152" y="-14.3" font-family="lato, roboto, helvetica" font-size="14.00" fill="#eeeeee">Take Tentacle</text>
</g>
<!-- take_pearl&#45;&gt;take_tentacle -->
<g id="edge20" class="edge">
<title>take_pearl&#45;&gt;take_tentacle</title>
<path fill="none" stroke="#999999" d="M152,-73.4551C152,-64.7686 152,-54.1898 152,-44.642"/>
<polygon fill="#999999" stroke="#999999" points="154.8001,-44.5903 152,-36.5904 149.2001,-44.5904 154.8001,-44.5903"/>
</g>
</g>
</svg>
