<?xml version="1.0" encoding="UTF-8" standalone="no"?>
<!DOCTYPE svg PUBLIC "-//W3C//DTD SVG 1.1//EN"
 "http://www.w3.org/Graphics/SVG/1.1/DTD/svg11.dtd">
<!-- Generated by graphviz version 2.40.1 (20161225.0304)
 -->
<!-- Title: G Pages: 1 -->
<svg width="259pt" height="1213pt"
 viewBox="0.00 0.00 259.08 1213.00" xmlns="http://www.w3.org/2000/svg" xmlns:xlink="http://www.w3.org/1999/xlink">
<g id="graph0" class="graph" transform="scale(1 1) rotate(0) translate(4 1209)">
<title>G</title>
<polygon fill="#ffffff" stroke="transparent" points="-4,4 -4,-1209 255.0818,-1209 255.0818,4 -4,4"/>
<!-- START -->
<g id="node1" class="node">
<title>START</title>
<polygon fill="#333333" stroke="#333333" points="58.8528,-1204.5 .1468,-1186.5 58.8528,-1168.5 117.5588,-1186.5 58.8528,-1204.5"/>
<polyline fill="none" stroke="#333333" points="11.6196,-1190.0177 11.6196,-1182.9823 "/>
<polyline fill="none" stroke="#333333" points="47.38,-1172.0177 70.3256,-1172.0177 "/>
<polyline fill="none" stroke="#333333" points="106.086,-1182.9823 106.086,-1190.0177 "/>
<polyline fill="none" stroke="#333333" points="70.3256,-1200.9823 47.38,-1200.9823 "/>
<text text-anchor="middle" x="58.8528" y="-1182.3" font-family="lato, roboto, helvetica" font-size="14.00" fill="#dddddd">START</text>
</g>
<!-- speaking_to_man -->
<g id="node17" class="node">
<title>speaking_to_man</title>
<path fill="#333399" stroke="#333399" d="M79.6957,-1095.5C79.6957,-1095.5 172.0099,-1095.5 172.0099,-1095.5 178.0099,-1095.5 184.0099,-1101.5 184.0099,-1107.5 184.0099,-1107.5 184.0099,-1119.5 184.0099,-1119.5 184.0099,-1125.5 178.0099,-1131.5 172.0099,-1131.5 172.0099,-1131.5 79.6957,-1131.5 79.6957,-1131.5 73.6957,-1131.5 67.6957,-1125.5 67.6957,-1119.5 67.6957,-1119.5 67.6957,-1107.5 67.6957,-1107.5 67.6957,-1101.5 73.6957,-1095.5 79.6957,-1095.5"/>
<text text-anchor="middle" x="125.8528" y="-1109.3" font-family="lato, roboto, helvetica" font-size="14.00" fill="#eeeeee">Speaking To Man</text>
</g>
<!-- START&#45;&gt;speaking_to_man -->
<g id="edge16" class="edge">
<title>START&#45;&gt;speaking_to_man</title>
<path fill="none" stroke="#999999" d="M71.7711,-1172.4249C80.7548,-1162.6367 92.9626,-1149.3356 103.5064,-1137.8476"/>
<polygon fill="#999999" stroke="#999999" points="105.8152,-1139.4729 109.1618,-1131.6857 101.6895,-1135.6863 105.8152,-1139.4729"/>
</g>
<!-- jewel_of_the_sea -->
<g id="node2" class="node">
<title>jewel_of_the_sea</title>
<path fill="#339933" stroke="#339933" d="M147.2942,-1168.5C147.2942,-1168.5 238.4114,-1168.5 238.4114,-1168.5 244.4114,-1168.5 250.4114,-1174.5 250.4114,-1180.5 250.4114,-1180.5 250.4114,-1192.5 250.4114,-1192.5 250.4114,-1198.5 244.4114,-1204.5 238.4114,-1204.5 238.4114,-1204.5 147.2942,-1204.5 147.2942,-1204.5 141.2942,-1204.5 135.2942,-1198.5 135.2942,-1192.5 135.2942,-1192.5 135.2942,-1180.5 135.2942,-1180.5 135.2942,-1174.5 141.2942,-1168.5 147.2942,-1168.5"/>
<text text-anchor="middle" x="192.8528" y="-1182.3" font-family="lato, roboto, helvetica" font-size="14.00" fill="#eeeeee">Jewel Of The Sea</text>
</g>
<!-- jewel_of_the_sea&#45;&gt;speaking_to_man -->
<g id="edge15" class="edge">
<title>jewel_of_the_sea&#45;&gt;speaking_to_man</title>
<path fill="none" stroke="#999999" d="M176.291,-1168.4551C167.7548,-1159.1545 157.2275,-1147.6844 148.0025,-1137.6332"/>
<polygon fill="#999999" stroke="#999999" points="149.9286,-1135.5909 142.4563,-1131.5904 145.8029,-1139.3776 149.9286,-1135.5909"/>
</g>
<!-- carrying_spear -->
<g id="node3" class="node">
<title>carrying_spear</title>
<path fill="#333399" stroke="#333399" d="M87.2851,-73.5C87.2851,-73.5 164.4205,-73.5 164.4205,-73.5 170.4205,-73.5 176.4205,-79.5 176.4205,-85.5 176.4205,-85.5 176.4205,-97.5 176.4205,-97.5 176.4205,-103.5 170.4205,-109.5 164.4205,-109.5 164.4205,-109.5 87.2851,-109.5 87.2851,-109.5 81.2851,-109.5 75.2851,-103.5 75.2851,-97.5 75.2851,-97.5 75.2851,-85.5 75.2851,-85.5 75.2851,-79.5 81.2851,-73.5 87.2851,-73.5"/>
<text text-anchor="middle" x="125.8528" y="-87.3" font-family="lato, roboto, helvetica" font-size="14.00" fill="#eeeeee">Carrying Spear</text>
</g>
<!-- get_jewel_of_the_sea -->
<g id="node18" class="node">
<title>get_jewel_of_the_sea</title>
<path fill="#993333" stroke="#993333" d="M68.4383,-.5C68.4383,-.5 183.2673,-.5 183.2673,-.5 189.2673,-.5 195.2673,-6.5 195.2673,-12.5 195.2673,-12.5 195.2673,-24.5 195.2673,-24.5 195.2673,-30.5 189.2673,-36.5 183.2673,-36.5 183.2673,-36.5 68.4383,-36.5 68.4383,-36.5 62.4383,-36.5 56.4383,-30.5 56.4383,-24.5 56.4383,-24.5 56.4383,-12.5 56.4383,-12.5 56.4383,-6.5 62.4383,-.5 68.4383,-.5"/>
<text text-anchor="middle" x="125.8528" y="-14.3" font-family="lato, roboto, helvetica" font-size="14.00" fill="#eeeeee">Get Jewel Of The Sea</text>
</g>
<!-- carrying_spear&#45;&gt;get_jewel_of_the_sea -->
<g id="edge17" class="edge">
<title>carrying_spear&#45;&gt;get_jewel_of_the_sea</title>
<path fill="none" stroke="#999999" d="M125.8528,-73.4551C125.8528,-64.7686 125.8528,-54.1898 125.8528,-44.642"/>
<polygon fill="#999999" stroke="#999999" points="128.6529,-44.5903 125.8528,-36.5904 123.0529,-44.5904 128.6529,-44.5903"/>
</g>
<!-- returned_boar -->
<g id="node4" class="node">
<title>returned_boar</title>
<path fill="#333399" stroke="#333399" d="M88.8384,-146.5C88.8384,-146.5 162.8672,-146.5 162.8672,-146.5 168.8672,-146.5 174.8672,-152.5 174.8672,-158.5 174.8672,-158.5 174.8672,-170.5 174.8672,-170.5 174.8672,-176.5 168.8672,-182.5 162.8672,-182.5 162.8672,-182.5 88.8384,-182.5 88.8384,-182.5 82.8384,-182.5 76.8384,-176.5 76.8384,-170.5 76.8384,-170.5 76.8384,-158.5 76.8384,-158.5 76.8384,-152.5 82.8384,-146.5 88.8384,-146.5"/>
<text text-anchor="middle" x="125.8528" y="-160.3" font-family="lato, roboto, helvetica" font-size="14.00" fill="#eeeeee">Returned Boar</text>
</g>
<!-- returned_boar&#45;&gt;carrying_spear -->
<g id="edge1" class="edge">
<title>returned_boar&#45;&gt;carrying_spear</title>
<path fill="none" stroke="#999999" d="M125.8528,-146.4551C125.8528,-137.7686 125.8528,-127.1898 125.8528,-117.642"/>
<polygon fill="#999999" stroke="#999999" points="128.6529,-117.5903 125.8528,-109.5904 123.0529,-117.5904 128.6529,-117.5903"/>
</g>
<!-- stole_boar -->
<g id="node5" class="node">
<title>stole_boar</title>
<path fill="#333399" stroke="#333399" d="M100.1077,-219.5C100.1077,-219.5 151.5979,-219.5 151.5979,-219.5 157.5979,-219.5 163.5979,-225.5 163.5979,-231.5 163.5979,-231.5 163.5979,-243.5 163.5979,-243.5 163.5979,-249.5 157.5979,-255.5 151.5979,-255.5 151.5979,-255.5 100.1077,-255.5 100.1077,-255.5 94.1077,-255.5 88.1077,-249.5 88.1077,-243.5 88.1077,-243.5 88.1077,-231.5 88.1077,-231.5 88.1077,-225.5 94.1077,-219.5 100.1077,-219.5"/>
<text text-anchor="middle" x="125.8528" y="-233.3" font-family="lato, roboto, helvetica" font-size="14.00" fill="#eeeeee">Stole Boar</text>
</g>
<!-- stole_boar&#45;&gt;returned_boar -->
<g id="edge2" class="edge">
<title>stole_boar&#45;&gt;returned_boar</title>
<path fill="none" stroke="#999999" d="M125.8528,-219.4551C125.8528,-210.7686 125.8528,-200.1898 125.8528,-190.642"/>
<polygon fill="#999999" stroke="#999999" points="128.6529,-190.5903 125.8528,-182.5904 123.0529,-190.5904 128.6529,-190.5903"/>
</g>
<!-- spoke_to_butcher -->
<g id="node6" class="node">
<title>spoke_to_butcher</title>
<path fill="#333399" stroke="#333399" d="M78.9194,-292.5C78.9194,-292.5 172.7862,-292.5 172.7862,-292.5 178.7862,-292.5 184.7862,-298.5 184.7862,-304.5 184.7862,-304.5 184.7862,-316.5 184.7862,-316.5 184.7862,-322.5 178.7862,-328.5 172.7862,-328.5 172.7862,-328.5 78.9194,-328.5 78.9194,-328.5 72.9194,-328.5 66.9194,-322.5 66.9194,-316.5 66.9194,-316.5 66.9194,-304.5 66.9194,-304.5 66.9194,-298.5 72.9194,-292.5 78.9194,-292.5"/>
<text text-anchor="middle" x="125.8528" y="-306.3" font-family="lato, roboto, helvetica" font-size="14.00" fill="#eeeeee">Spoke To Butcher</text>
</g>
<!-- spoke_to_butcher&#45;&gt;stole_boar -->
<g id="edge3" class="edge">
<title>spoke_to_butcher&#45;&gt;stole_boar</title>
<path fill="none" stroke="#999999" d="M125.8528,-292.4551C125.8528,-283.7686 125.8528,-273.1898 125.8528,-263.642"/>
<polygon fill="#999999" stroke="#999999" points="128.6529,-263.5903 125.8528,-255.5904 123.0529,-263.5904 128.6529,-263.5903"/>
</g>
<!-- failed_to_defeat_creature -->
<g id="node7" class="node">
<title>failed_to_defeat_creature</title>
<path fill="#333399" stroke="#333399" d="M56.5831,-365.5C56.5831,-365.5 195.1225,-365.5 195.1225,-365.5 201.1225,-365.5 207.1225,-371.5 207.1225,-377.5 207.1225,-377.5 207.1225,-389.5 207.1225,-389.5 207.1225,-395.5 201.1225,-401.5 195.1225,-401.5 195.1225,-401.5 56.5831,-401.5 56.5831,-401.5 50.5831,-401.5 44.5831,-395.5 44.5831,-389.5 44.5831,-389.5 44.5831,-377.5 44.5831,-377.5 44.5831,-371.5 50.5831,-365.5 56.5831,-365.5"/>
<text text-anchor="middle" x="125.8528" y="-379.3" font-family="lato, roboto, helvetica" font-size="14.00" fill="#eeeeee">Failed To Defeat Creature</text>
</g>
<!-- failed_to_defeat_creature&#45;&gt;spoke_to_butcher -->
<g id="edge4" class="edge">
<title>failed_to_defeat_creature&#45;&gt;spoke_to_butcher</title>
<path fill="none" stroke="#999999" d="M125.8528,-365.4551C125.8528,-356.7686 125.8528,-346.1898 125.8528,-336.642"/>
<polygon fill="#999999" stroke="#999999" points="128.6529,-336.5903 125.8528,-328.5904 123.0529,-336.5904 128.6529,-336.5903"/>
</g>
<!-- dived_with_shell -->
<g id="node8" class="node">
<title>dived_with_shell</title>
<path fill="#333399" stroke="#333399" d="M80.8598,-438.5C80.8598,-438.5 170.8458,-438.5 170.8458,-438.5 176.8458,-438.5 182.8458,-444.5 182.8458,-450.5 182.8458,-450.5 182.8458,-462.5 182.8458,-462.5 182.8458,-468.5 176.8458,-474.5 170.8458,-474.5 170.8458,-474.5 80.8598,-474.5 80.8598,-474.5 74.8598,-474.5 68.8598,-468.5 68.8598,-462.5 68.8598,-462.5 68.8598,-450.5 68.8598,-450.5 68.8598,-444.5 74.8598,-438.5 80.8598,-438.5"/>
<text text-anchor="middle" x="125.8528" y="-452.3" font-family="lato, roboto, helvetica" font-size="14.00" fill="#eeeeee">Dived With Shell</text>
</g>
<!-- dived_with_shell&#45;&gt;failed_to_defeat_creature -->
<g id="edge5" class="edge">
<title>dived_with_shell&#45;&gt;failed_to_defeat_creature</title>
<path fill="none" stroke="#999999" d="M125.8528,-438.4551C125.8528,-429.7686 125.8528,-419.1898 125.8528,-409.642"/>
<polygon fill="#999999" stroke="#999999" points="128.6529,-409.5903 125.8528,-401.5904 123.0529,-409.5904 128.6529,-409.5903"/>
</g>
<!-- gave_something_to_shorewoman -->
<g id="node9" class="node">
<title>gave_something_to_shorewoman</title>
<path fill="#333399" stroke="#333399" d="M34.7893,-511.5C34.7893,-511.5 216.9163,-511.5 216.9163,-511.5 222.9163,-511.5 228.9163,-517.5 228.9163,-523.5 228.9163,-523.5 228.9163,-535.5 228.9163,-535.5 228.9163,-541.5 222.9163,-547.5 216.9163,-547.5 216.9163,-547.5 34.7893,-547.5 34.7893,-547.5 28.7893,-547.5 22.7893,-541.5 22.7893,-535.5 22.7893,-535.5 22.7893,-523.5 22.7893,-523.5 22.7893,-517.5 28.7893,-511.5 34.7893,-511.5"/>
<text text-anchor="middle" x="125.8528" y="-525.3" font-family="lato, roboto, helvetica" font-size="14.00" fill="#eeeeee">Gave Something To Shorewoman</text>
</g>
<!-- gave_something_to_shorewoman&#45;&gt;dived_with_shell -->
<g id="edge6" class="edge">
<title>gave_something_to_shorewoman&#45;&gt;dived_with_shell</title>
<path fill="none" stroke="#999999" d="M125.8528,-511.4551C125.8528,-502.7686 125.8528,-492.1898 125.8528,-482.642"/>
<polygon fill="#999999" stroke="#999999" points="128.6529,-482.5903 125.8528,-474.5904 123.0529,-482.5904 128.6529,-482.5903"/>
</g>
<!-- fulfilled_mini_quest -->
<g id="node10" class="node">
<title>fulfilled_mini_quest</title>
<path fill="#333399" stroke="#333399" d="M72.3016,-584.5C72.3016,-584.5 179.404,-584.5 179.404,-584.5 185.404,-584.5 191.404,-590.5 191.404,-596.5 191.404,-596.5 191.404,-608.5 191.404,-608.5 191.404,-614.5 185.404,-620.5 179.404,-620.5 179.404,-620.5 72.3016,-620.5 72.3016,-620.5 66.3016,-620.5 60.3016,-614.5 60.3016,-608.5 60.3016,-608.5 60.3016,-596.5 60.3016,-596.5 60.3016,-590.5 66.3016,-584.5 72.3016,-584.5"/>
<text text-anchor="middle" x="125.8528" y="-598.3" font-family="lato, roboto, helvetica" font-size="14.00" fill="#eeeeee">Fulfilled Mini Quest</text>
</g>
<!-- fulfilled_mini_quest&#45;&gt;gave_something_to_shorewoman -->
<g id="edge7" class="edge">
<title>fulfilled_mini_quest&#45;&gt;gave_something_to_shorewoman</title>
<path fill="none" stroke="#999999" d="M125.8528,-584.4551C125.8528,-575.7686 125.8528,-565.1898 125.8528,-555.642"/>
<polygon fill="#999999" stroke="#999999" points="128.6529,-555.5903 125.8528,-547.5904 123.0529,-555.5904 128.6529,-555.5903"/>
</g>
<!-- spoke_to_shorewoman_after_fixing_boat -->
<g id="node11" class="node">
<title>spoke_to_shorewoman_after_fixing_boat</title>
<path fill="#333399" stroke="#333399" d="M12.6238,-657.5C12.6238,-657.5 239.0818,-657.5 239.0818,-657.5 245.0818,-657.5 251.0818,-663.5 251.0818,-669.5 251.0818,-669.5 251.0818,-681.5 251.0818,-681.5 251.0818,-687.5 245.0818,-693.5 239.0818,-693.5 239.0818,-693.5 12.6238,-693.5 12.6238,-693.5 6.6238,-693.5 .6238,-687.5 .6238,-681.5 .6238,-681.5 .6238,-669.5 .6238,-669.5 .6238,-663.5 6.6238,-657.5 12.6238,-657.5"/>
<text text-anchor="middle" x="125.8528" y="-671.3" font-family="lato, roboto, helvetica" font-size="14.00" fill="#eeeeee">Spoke To Shorewoman After Fixing Boat</text>
</g>
<!-- spoke_to_shorewoman_after_fixing_boat&#45;&gt;fulfilled_mini_quest -->
<g id="edge8" class="edge">
<title>spoke_to_shorewoman_after_fixing_boat&#45;&gt;fulfilled_mini_quest</title>
<path fill="none" stroke="#999999" d="M125.8528,-657.4551C125.8528,-648.7686 125.8528,-638.1898 125.8528,-628.642"/>
<polygon fill="#999999" stroke="#999999" points="128.6529,-628.5903 125.8528,-620.5904 123.0529,-628.5904 128.6529,-628.5903"/>
</g>
<!-- trying_to_dive -->
<g id="node12" class="node">
<title>trying_to_dive</title>
<path fill="#333399" stroke="#333399" d="M85.9187,-730.5C85.9187,-730.5 165.7869,-730.5 165.7869,-730.5 171.7869,-730.5 177.7869,-736.5 177.7869,-742.5 177.7869,-742.5 177.7869,-754.5 177.7869,-754.5 177.7869,-760.5 171.7869,-766.5 165.7869,-766.5 165.7869,-766.5 85.9187,-766.5 85.9187,-766.5 79.9187,-766.5 73.9187,-760.5 73.9187,-754.5 73.9187,-754.5 73.9187,-742.5 73.9187,-742.5 73.9187,-736.5 79.9187,-730.5 85.9187,-730.5"/>
<text text-anchor="middle" x="125.8528" y="-744.3" font-family="lato, roboto, helvetica" font-size="14.00" fill="#eeeeee">Trying To Dive</text>
</g>
<!-- trying_to_dive&#45;&gt;spoke_to_shorewoman_after_fixing_boat -->
<g id="edge9" class="edge">
<title>trying_to_dive&#45;&gt;spoke_to_shorewoman_after_fixing_boat</title>
<path fill="none" stroke="#999999" d="M125.8528,-730.4551C125.8528,-721.7686 125.8528,-711.1898 125.8528,-701.642"/>
<polygon fill="#999999" stroke="#999999" points="128.6529,-701.5903 125.8528,-693.5904 123.0529,-701.5904 128.6529,-701.5903"/>
</g>
<!-- fixing_boat -->
<g id="node13" class="node">
<title>fixing_boat</title>
<path fill="#333399" stroke="#333399" d="M96.6,-803.5C96.6,-803.5 155.1056,-803.5 155.1056,-803.5 161.1056,-803.5 167.1056,-809.5 167.1056,-815.5 167.1056,-815.5 167.1056,-827.5 167.1056,-827.5 167.1056,-833.5 161.1056,-839.5 155.1056,-839.5 155.1056,-839.5 96.6,-839.5 96.6,-839.5 90.6,-839.5 84.6,-833.5 84.6,-827.5 84.6,-827.5 84.6,-815.5 84.6,-815.5 84.6,-809.5 90.6,-803.5 96.6,-803.5"/>
<text text-anchor="middle" x="125.8528" y="-817.3" font-family="lato, roboto, helvetica" font-size="14.00" fill="#eeeeee">Fixing Boat</text>
</g>
<!-- fixing_boat&#45;&gt;trying_to_dive -->
<g id="edge10" class="edge">
<title>fixing_boat&#45;&gt;trying_to_dive</title>
<path fill="none" stroke="#999999" d="M125.8528,-803.4551C125.8528,-794.7686 125.8528,-784.1898 125.8528,-774.642"/>
<polygon fill="#999999" stroke="#999999" points="128.6529,-774.5903 125.8528,-766.5904 123.0529,-774.5904 128.6529,-774.5903"/>
</g>
<!-- giving_wood -->
<g id="node14" class="node">
<title>giving_wood</title>
<path fill="#333399" stroke="#333399" d="M91.5516,-876.5C91.5516,-876.5 160.154,-876.5 160.154,-876.5 166.154,-876.5 172.154,-882.5 172.154,-888.5 172.154,-888.5 172.154,-900.5 172.154,-900.5 172.154,-906.5 166.154,-912.5 160.154,-912.5 160.154,-912.5 91.5516,-912.5 91.5516,-912.5 85.5516,-912.5 79.5516,-906.5 79.5516,-900.5 79.5516,-900.5 79.5516,-888.5 79.5516,-888.5 79.5516,-882.5 85.5516,-876.5 91.5516,-876.5"/>
<text text-anchor="middle" x="125.8528" y="-890.3" font-family="lato, roboto, helvetica" font-size="14.00" fill="#eeeeee">Giving Wood</text>
</g>
<!-- giving_wood&#45;&gt;fixing_boat -->
<g id="edge11" class="edge">
<title>giving_wood&#45;&gt;fixing_boat</title>
<path fill="none" stroke="#999999" d="M125.8528,-876.4551C125.8528,-867.7686 125.8528,-857.1898 125.8528,-847.642"/>
<polygon fill="#999999" stroke="#999999" points="128.6529,-847.5903 125.8528,-839.5904 123.0529,-847.5904 128.6529,-847.5903"/>
</g>
<!-- chopping_wood -->
<g id="node15" class="node">
<title>chopping_wood</title>
<path fill="#333399" stroke="#333399" d="M83.3819,-949.5C83.3819,-949.5 168.3237,-949.5 168.3237,-949.5 174.3237,-949.5 180.3237,-955.5 180.3237,-961.5 180.3237,-961.5 180.3237,-973.5 180.3237,-973.5 180.3237,-979.5 174.3237,-985.5 168.3237,-985.5 168.3237,-985.5 83.3819,-985.5 83.3819,-985.5 77.3819,-985.5 71.3819,-979.5 71.3819,-973.5 71.3819,-973.5 71.3819,-961.5 71.3819,-961.5 71.3819,-955.5 77.3819,-949.5 83.3819,-949.5"/>
<text text-anchor="middle" x="125.8528" y="-963.3" font-family="lato, roboto, helvetica" font-size="14.00" fill="#eeeeee">Chopping Wood</text>
</g>
<!-- chopping_wood&#45;&gt;giving_wood -->
<g id="edge12" class="edge">
<title>chopping_wood&#45;&gt;giving_wood</title>
<path fill="none" stroke="#999999" d="M125.8528,-949.4551C125.8528,-940.7686 125.8528,-930.1898 125.8528,-920.642"/>
<polygon fill="#999999" stroke="#999999" points="128.6529,-920.5903 125.8528,-912.5904 123.0529,-920.5904 128.6529,-920.5903"/>
</g>
<!-- getting_axe -->
<g id="node16" class="node">
<title>getting_axe</title>
<path fill="#333399" stroke="#333399" d="M95.4457,-1022.5C95.4457,-1022.5 156.2599,-1022.5 156.2599,-1022.5 162.2599,-1022.5 168.2599,-1028.5 168.2599,-1034.5 168.2599,-1034.5 168.2599,-1046.5 168.2599,-1046.5 168.2599,-1052.5 162.2599,-1058.5 156.2599,-1058.5 156.2599,-1058.5 95.4457,-1058.5 95.4457,-1058.5 89.4457,-1058.5 83.4457,-1052.5 83.4457,-1046.5 83.4457,-1046.5 83.4457,-1034.5 83.4457,-1034.5 83.4457,-1028.5 89.4457,-1022.5 95.4457,-1022.5"/>
<text text-anchor="middle" x="125.8528" y="-1036.3" font-family="lato, roboto, helvetica" font-size="14.00" fill="#eeeeee">Getting Axe</text>
</g>
<!-- getting_axe&#45;&gt;chopping_wood -->
<g id="edge13" class="edge">
<title>getting_axe&#45;&gt;chopping_wood</title>
<path fill="none" stroke="#999999" d="M125.8528,-1022.4551C125.8528,-1013.7686 125.8528,-1003.1898 125.8528,-993.642"/>
<polygon fill="#999999" stroke="#999999" points="128.6529,-993.5903 125.8528,-985.5904 123.0529,-993.5904 128.6529,-993.5903"/>
</g>
<!-- speaking_to_man&#45;&gt;getting_axe -->
<g id="edge14" class="edge">
<title>speaking_to_man&#45;&gt;getting_axe</title>
<path fill="none" stroke="#999999" d="M125.8528,-1095.4551C125.8528,-1086.7686 125.8528,-1076.1898 125.8528,-1066.642"/>
<polygon fill="#999999" stroke="#999999" points="128.6529,-1066.5903 125.8528,-1058.5904 123.0529,-1066.5904 128.6529,-1066.5903"/>
</g>
</g>
</svg>
